<svg width="64" height="64" viewBox="0 0 64 64" xmlns="http://www.w3.org/2000/svg">
  <!-- Outer plastic model frame -->
  <rect x="2" y="2" width="60" height="60" rx="4" fill="none" stroke="#64748b" stroke-width="2" stroke-dasharray="5,2"/>
  <circle cx="4" cy="4" r="2.5" fill="#64748b"/>
  <circle cx="60" cy="4" r="2.5" fill="#64748b"/>
  <circle cx="4" cy="60" r="2.5" fill="#64748b"/>
  <circle cx="60" cy="60" r="2.5" fill="#64748b"/>
  
  <!-- Inner plastic model frame -->
  <rect x="11" y="11" width="42" height="42" rx="2" fill="none" stroke="#2563eb" stroke-width="1.3" stroke-dasharray="2.5,1.5"/>
  <circle cx="13" cy="13" r="1.5" fill="#2563eb"/>
  <circle cx="51" cy="13" r="1.5" fill="#2563eb"/>
  <circle cx="13" cy="51" r="1.5" fill="#2563eb"/>
  <circle cx="51" cy="51" r="1.5" fill="#2563eb"/>
  
  <!-- Large clock -->
  <circle cx="32" cy="32" r="13" fill="#16a34a"/>
  <circle cx="32" cy="32" r="11.5" fill="white"/>
  <line x1="32" y1="32" x2="32" y2="24.5" stroke="#16a34a" stroke-width="2.5" stroke-linecap="round"/>
  <line x1="32" y1="32" x2="37.5" y2="34.5" stroke="#16a34a" stroke-width="2" stroke-linecap="round"/>
  <circle cx="32" cy="32" r="2" fill="#16a34a"/>
  
  <!-- Medium check mark -->
  <g transform="translate(48, 48)">
    <circle r="6" fill="#2563eb"/>
    <path d="M -2.5,-0.5 L -0.5,2 L 3,-2" stroke="white" stroke-width="1.8" fill="none" stroke-linecap="round" stroke-linejoin="round"/>
  </g>
  
  <!-- Small sun -->
  <g transform="translate(48, 16)">
    <circle r="3" fill="#fbbf24"/>
    <circle r="2" fill="#fef3c7"/>
  </g>
  
  <!-- Small ID card -->
  <g transform="translate(16, 16)">
    <rect x="-2.5" y="-3.5" width="5" height="7" rx="0.5" fill="#2563eb"/>
    <circle cx="0" cy="-1.5" r="1" fill="white"/>
    <line x1="-1.5" y1="0.5" x2="1.5" y2="0.5" stroke="white" stroke-width="0.4"/>
    <line x1="-1.5" y1="1.5" x2="1.5" y2="1.5" stroke="white" stroke-width="0.4"/>
  </g>
  
  <!-- Small moon -->
  <g transform="translate(16, 48)">
    <circle r="2.8" fill="#475569"/>
    <circle cx="1.2" cy="0" r="2.2" fill="white"/>
  </g>
</svg>
