<svg width="64" height="64" viewBox="0 0 64 64" xmlns="http://www.w3.org/2000/svg">
  <!-- Outer plastic model frame with rounded corners -->
  <rect x="2" y="2" width="60" height="60" rx="4" fill="none" stroke="#2563eb" stroke-width="2" stroke-dasharray="3,3"/>
  <circle cx="4" cy="4" r="2.5" fill="#2563eb"/>
  <circle cx="60" cy="4" r="2.5" fill="#2563eb"/>
  <circle cx="4" cy="60" r="2.5" fill="#2563eb"/>
  <circle cx="60" cy="60" r="2.5" fill="#2563eb"/>
  
  <!-- Inner plastic model frame -->
  <rect x="10" y="10" width="44" height="44" rx="2" fill="none" stroke="#2563eb" stroke-width="1" stroke-dasharray="2,1"/>
  <circle cx="11" cy="11" r="1.2" fill="#2563eb"/>
  <circle cx="53" cy="11" r="1.2" fill="#2563eb"/>
  <circle cx="11" cy="53" r="1.2" fill="#2563eb"/>
  <circle cx="53" cy="53" r="1.2" fill="#2563eb"/>
  
  <!-- Large clock with numbers -->
  <circle cx="32" cy="32" r="14" fill="#2563eb" opacity="0.85"/>
  <circle cx="32" cy="32" r="12.5" fill="white" opacity="0.95"/>
  <text x="32" y="23" text-anchor="middle" font-size="4" fill="#2563eb">12</text>
  <text x="39" y="34" text-anchor="middle" font-size="4" fill="#2563eb">3</text>
  <line x1="32" y1="32" x2="32" y2="24" stroke="#2563eb" stroke-width="2.5" stroke-linecap="round"/>
  <line x1="32" y1="32" x2="37" y2="32" stroke="#2563eb" stroke-width="2" stroke-linecap="round"/>
  <circle cx="32" cy="32" r="2" fill="#2563eb"/>
  
  <!-- Medium check mark -->
  <g transform="translate(18, 50)">
    <circle r="6" fill="#16a34a" opacity="0.9"/>
    <path d="M -2.5,-0.5 L -0.5,2 L 3,-2" stroke="white" stroke-width="1.8" fill="none" stroke-linecap="round" stroke-linejoin="round"/>
  </g>
  
  <!-- Small sun -->
  <g transform="translate(48, 18)">
    <circle r="3" fill="#fbbf24" opacity="0.9"/>
    <circle r="2" fill="#fef3c7"/>
  </g>
  
  <!-- Small moon -->
  <g transform="translate(18, 18)">
    <circle r="2.8" fill="#94a3b8" opacity="0.8"/>
    <circle cx="1.2" cy="0" r="2.2" fill="white"/>
  </g>
  
  <!-- Small ID card -->
  <g transform="translate(48, 50)">
    <rect x="-2.5" y="-3.5" width="5" height="7" rx="0.5" fill="#2563eb" opacity="0.85"/>
    <circle cx="0" cy="-1.5" r="1" fill="white" opacity="0.9"/>
    <line x1="-1.5" y1="0.5" x2="1.5" y2="0.5" stroke="white" stroke-width="0.4"/>
    <line x1="-1.5" y1="1.5" x2="1.5" y2="1.5" stroke="white" stroke-width="0.4"/>
  </g>
</svg>
