<svg width="64" height="64" viewBox="0 0 64 64" xmlns="http://www.w3.org/2000/svg">
  <!-- Outer plastic model frame -->
  <rect x="1" y="1" width="62" height="62" fill="none" stroke="#2563eb" stroke-width="2" stroke-dasharray="6,3"/>
  <circle cx="3" cy="3" r="2.5" fill="#2563eb"/>
  <circle cx="61" cy="3" r="2.5" fill="#2563eb"/>
  <circle cx="3" cy="61" r="2.5" fill="#2563eb"/>
  <circle cx="61" cy="61" r="2.5" fill="#2563eb"/>
  
  <!-- Inner plastic model frame -->
  <rect x="8" y="8" width="48" height="48" fill="none" stroke="#64748b" stroke-width="1.5" stroke-dasharray="4,2"/>
  <circle cx="10" cy="10" r="1.8" fill="#64748b"/>
  <circle cx="54" cy="10" r="1.8" fill="#64748b"/>
  <circle cx="10" cy="54" r="1.8" fill="#64748b"/>
  <circle cx="54" cy="54" r="1.8" fill="#64748b"/>
  
  <!-- Large clock -->
  <circle cx="32" cy="32" r="13" fill="#16a34a"/>
  <circle cx="32" cy="32" r="11.5" fill="white"/>
  <line x1="32" y1="32" x2="28" y2="26" stroke="#16a34a" stroke-width="2" stroke-linecap="round"/>
  <line x1="32" y1="32" x2="38" y2="34" stroke="#16a34a" stroke-width="2" stroke-linecap="round"/>
  <circle cx="32" cy="32" r="1.8" fill="#16a34a"/>
  
  <!-- Medium check mark -->
  <g transform="translate(46, 18)">
    <circle r="6" fill="#2563eb"/>
    <path d="M -2.5,-0.5 L -0.5,2 L 3,-2" stroke="white" stroke-width="1.8" fill="none" stroke-linecap="round" stroke-linejoin="round"/>
  </g>
  
  <!-- Small moon -->
  <g transform="translate(18, 18)">
    <circle r="3" fill="#64748b"/>
    <circle cx="1.3" cy="0" r="2.3" fill="white"/>
  </g>
  
  <!-- Small sun -->
  <g transform="translate(18, 46)">
    <circle r="3" fill="#fbbf24"/>
    <circle r="2" fill="#fef3c7"/>
    <line x1="-4" y1="0" x2="-3.2" y2="0" stroke="#fbbf24" stroke-width="0.8"/>
    <line x1="4" y1="0" x2="3.2" y2="0" stroke="#fbbf24" stroke-width="0.8"/>
    <line x1="0" y1="-4" x2="0" y2="-3.2" stroke="#fbbf24" stroke-width="0.8"/>
    <line x1="0" y1="4" x2="0" y2="3.2" stroke="#fbbf24" stroke-width="0.8"/>
  </g>
  
  <!-- Small ID card -->
  <g transform="translate(46, 46)">
    <rect x="-2.5" y="-3.5" width="5" height="7" rx="0.5" fill="#2563eb"/>
    <circle cx="0" cy="-1.5" r="1" fill="white"/>
    <line x1="-1.5" y1="0.5" x2="1.5" y2="0.5" stroke="white" stroke-width="0.4"/>
    <line x1="-1.5" y1="1.5" x2="1.5" y2="1.5" stroke="white" stroke-width="0.4"/>
  </g>
</svg>
