<svg width="64" height="64" viewBox="0 0 64 64" xmlns="http://www.w3.org/2000/svg">
  <!-- Outer plastic model frame -->
  <rect x="2" y="2" width="60" height="60" fill="none" stroke="#2563eb" stroke-width="2" stroke-dasharray="4,2"/>
  <circle cx="4" cy="4" r="2" fill="#2563eb"/>
  <circle cx="60" cy="4" r="2" fill="#2563eb"/>
  <circle cx="4" cy="60" r="2" fill="#2563eb"/>
  <circle cx="60" cy="60" r="2" fill="#2563eb"/>
  
  <!-- Inner plastic model frame -->
  <rect x="10" y="10" width="44" height="44" fill="none" stroke="#16a34a" stroke-width="1.5" stroke-dasharray="2,2"/>
  <circle cx="12" cy="12" r="1.5" fill="#16a34a"/>
  <circle cx="52" cy="12" r="1.5" fill="#16a34a"/>
  <circle cx="12" cy="52" r="1.5" fill="#16a34a"/>
  <circle cx="52" cy="52" r="1.5" fill="#16a34a"/>
  
  <!-- Large clock -->
  <circle cx="32" cy="32" r="13" fill="#16a34a" opacity="0.9"/>
  <circle cx="32" cy="32" r="11" fill="white" opacity="0.95"/>
  <line x1="32" y1="32" x2="32" y2="26" stroke="#16a34a" stroke-width="2" stroke-linecap="round"/>
  <line x1="32" y1="32" x2="36" y2="36" stroke="#16a34a" stroke-width="1.5" stroke-linecap="round"/>
  <circle cx="32" cy="32" r="1.5" fill="#16a34a"/>
  
  <!-- Medium check mark -->
  <g transform="translate(16, 48)">
    <circle r="5" fill="#2563eb" opacity="0.9"/>
    <path d="M -1.5,-0.5 L -0.5,1 L 2,-1.5" stroke="white" stroke-width="1.3" fill="none" stroke-linecap="round" stroke-linejoin="round"/>
  </g>
  
  <!-- Small sun -->
  <g transform="translate(16, 16)">
    <circle r="2.5" fill="#fbbf24" opacity="0.9"/>
    <circle r="1.8" fill="#fef3c7"/>
  </g>
  
  <!-- Small moon -->
  <g transform="translate(48, 16)">
    <circle r="2.5" fill="#64748b" opacity="0.8"/>
    <circle cx="1.2" cy="0" r="2" fill="white"/>
  </g>
  
  <!-- Small ID card -->
  <g transform="translate(48, 48)">
    <rect x="-2.5" y="-3.5" width="5" height="7" rx="0.5" fill="#2563eb" opacity="0.8"/>
    <rect x="-1.5" y="-2.5" width="3" height="1.5" rx="0.3" fill="white" opacity="0.9"/>
    <line x1="-1.5" y1="0" x2="1.5" y2="0" stroke="white" stroke-width="0.4"/>
    <line x1="-1.5" y1="1" x2="1.5" y2="1" stroke="white" stroke-width="0.4"/>
  </g>
</svg>
