<svg xmlns="http://www.w3.org/2000/svg" viewBox="0 0 32 32">
  <!-- Outer frame -->
  <rect x="1" y="1" width="30" height="30" fill="none" stroke="#64748b" stroke-width="1.5"/>
  
  <!-- Inner frame -->
  <rect x="4" y="4" width="24" height="24" fill="none" stroke="#64748b" stroke-width="1"/>
  
  <!-- Burrs/nubs (top sides) -->
  <rect x="8" y="0" width="3" height="2" fill="#64748b"/>
  <rect x="21" y="0" width="3" height="2" fill="#64748b"/>
  
  <!-- Burrs/nubs (bottom-center) -->
  <rect x="14" y="30" width="4" height="2" fill="#64748b"/>
  
  <!-- Burrs/nubs (left-top) -->
  <rect x="0" y="8" width="2" height="3" fill="#64748b"/>
  
  <!-- Burrs/nubs (right-bottom) -->
  <rect x="30" y="21" width="2" height="3" fill="#64748b"/>
  
  <!-- Large clock in center -->
  <circle cx="16" cy="16" r="8" fill="#2563eb"/>
  <circle cx="16" cy="16" r="6" fill="white"/>
  <line x1="16" y1="16" x2="16" y2="11" stroke="#2563eb" stroke-width="1.5" stroke-linecap="round"/>
  <line x1="16" y1="16" x2="18" y2="19.5" stroke="#2563eb" stroke-width="1.5" stroke-linecap="round"/>
  
  <!-- Medium check mark -->
  <path d="M 23 7 L 25 9 L 28 6" stroke="#16a34a" stroke-width="1.5" fill="none" stroke-linecap="round" stroke-linejoin="round"/>
  
  <!-- Small sun -->
  <circle cx="7" cy="25" r="1.5" fill="#fbbf24"/>
  <line x1="7" y1="23" x2="7" y2="22.5" stroke="#fbbf24" stroke-width="0.5"/>
  <line x1="7" y1="27.5" x2="7" y2="27" stroke="#fbbf24" stroke-width="0.5"/>
  <line x1="5" y1="25" x2="4.5" y2="25" stroke="#fbbf24" stroke-width="0.5"/>
  <line x1="9.5" y1="25" x2="9" y2="25" stroke="#fbbf24" stroke-width="0.5"/>
  
  <!-- Small moon -->
  <path d="M 25 25 A 1.5 1.5 0 1 0 25 28 A 1.2 1.2 0 1 1 25 25" fill="#94a3b8"/>
  
  <!-- Small badge -->
  <rect x="5.5" y="6" width="3" height="4" rx="0.5" fill="#2563eb"/>
  <circle cx="7" cy="7.5" r="0.7" fill="white"/>
</svg>
