<svg width="64" height="64" viewBox="0 0 64 64" xmlns="http://www.w3.org/2000/svg">
  <!-- Background -->
  <rect width="64" height="64" fill="#f8fafc"/>
  
  <!-- Outer plastic model frame -->
  <rect x="2" y="2" width="60" height="60" fill="none" stroke="#64748b" stroke-width="2.5" stroke-dasharray="5,3"/>
  <circle cx="4" cy="4" r="2.5" fill="#64748b"/>
  <circle cx="60" cy="4" r="2.5" fill="#64748b"/>
  <circle cx="4" cy="60" r="2.5" fill="#64748b"/>
  <circle cx="60" cy="60" r="2.5" fill="#64748b"/>
  
  <!-- Inner plastic model frame -->
  <rect x="10" y="10" width="44" height="44" fill="none" stroke="#16a34a" stroke-width="1.5" stroke-dasharray="3,1.5"/>
  <rect x="9" y="9" width="2.5" height="2.5" fill="#16a34a"/>
  <rect x="52.5" y="9" width="2.5" height="2.5" fill="#16a34a"/>
  <rect x="9" y="52.5" width="2.5" height="2.5" fill="#16a34a"/>
  <rect x="52.5" y="52.5" width="2.5" height="2.5" fill="#16a34a"/>
  
  <!-- Large clock -->
  <circle cx="32" cy="32" r="14" fill="#2563eb"/>
  <circle cx="32" cy="32" r="12" fill="#dbeafe"/>
  <line x1="32" y1="32" x2="32" y2="23" stroke="#2563eb" stroke-width="2.5" stroke-linecap="round"/>
  <line x1="32" y1="32" x2="39" y2="32" stroke="#16a34a" stroke-width="2" stroke-linecap="round"/>
  <circle cx="32" cy="32" r="2" fill="#1e293b"/>
  
  <!-- Medium check mark -->
  <g transform="translate(50, 50)">
    <circle r="6" fill="#16a34a"/>
    <path d="M -2.5,-0.5 L -0.5,2 L 3,-2" stroke="white" stroke-width="1.8" fill="none" stroke-linecap="round" stroke-linejoin="round"/>
  </g>
  
  <!-- Small sun -->
  <g transform="translate(14, 14)">
    <circle r="3" fill="#fbbf24"/>
    <circle r="2" fill="#fef3c7"/>
  </g>
  
  <!-- Small moon -->
  <g transform="translate(50, 14)">
    <circle r="2.8" fill="#64748b"/>
    <circle cx="1.3" cy="0" r="2.2" fill="white"/>
  </g>
  
  <!-- Small ID card -->
  <g transform="translate(14, 50)">
    <rect x="-2.8" y="-3.5" width="5.6" height="7" rx="0.5" fill="#2563eb"/>
    <rect x="-1.8" y="-2.5" width="3.6" height="1.8" rx="0.3" fill="white"/>
    <line x1="-1.8" y1="0.2" x2="1.8" y2="0.2" stroke="white" stroke-width="0.5"/>
    <line x1="-1.8" y1="1.5" x2="1.8" y2="1.5" stroke="white" stroke-width="0.5"/>
  </g>
</svg>
