<svg width="64" height="64" viewBox="0 0 64 64" xmlns="http://www.w3.org/2000/svg">
  <!-- Background -->
  <rect width="64" height="64" fill="#f8fafc"/>
  
  <!-- Outer plastic model frame -->
  <rect x="2" y="2" width="60" height="60" fill="none" stroke="#2563eb" stroke-width="2.5" stroke-dasharray="6,3"/>
  <rect x="1" y="1" width="4" height="4" fill="#2563eb"/>
  <rect x="59" y="1" width="4" height="4" fill="#2563eb"/>
  <rect x="1" y="59" width="4" height="4" fill="#2563eb"/>
  <rect x="59" y="59" width="4" height="4" fill="#2563eb"/>
  
  <!-- Inner plastic model frame -->
  <rect x="10" y="10" width="44" height="44" fill="white" stroke="#16a34a" stroke-width="1.5" stroke-dasharray="4,2"/>
  <rect x="9" y="9" width="3" height="3" fill="#16a34a"/>
  <rect x="52" y="9" width="3" height="3" fill="#16a34a"/>
  <rect x="9" y="52" width="3" height="3" fill="#16a34a"/>
  <rect x="52" y="52" width="3" height="3" fill="#16a34a"/>
  
  <!-- Large clock -->
  <circle cx="32" cy="32" r="13" fill="#2563eb"/>
  <circle cx="32" cy="32" r="11.5" fill="#dbeafe"/>
  <line x1="32" y1="32" x2="32" y2="24" stroke="#2563eb" stroke-width="2.5" stroke-linecap="round"/>
  <line x1="32" y1="32" x2="38" y2="36" stroke="#2563eb" stroke-width="2" stroke-linecap="round"/>
  <circle cx="32" cy="32" r="2" fill="#2563eb"/>
  
  <!-- Medium check mark -->
  <g transform="translate(48, 16)">
    <circle r="5.5" fill="#16a34a"/>
    <path d="M -2,-0.5 L -0.5,1.5 L 2.5,-2" stroke="white" stroke-width="1.5" fill="none" stroke-linecap="round" stroke-linejoin="round"/>
  </g>
  
  <!-- Small ID card -->
  <g transform="translate(16, 16)">
    <rect x="-2.5" y="-3.5" width="5" height="7" rx="0.5" fill="#2563eb"/>
    <rect x="-1.5" y="-2.5" width="3" height="1.5" rx="0.3" fill="white"/>
    <line x1="-1.5" y1="0.2" x2="1.5" y2="0.2" stroke="white" stroke-width="0.4"/>
    <line x1="-1.5" y1="1.2" x2="1.5" y2="1.2" stroke="white" stroke-width="0.4"/>
  </g>
  
  <!-- Small moon -->
  <g transform="translate(16, 48)">
    <circle r="2.8" fill="#64748b"/>
    <circle cx="1.2" cy="0" r="2.2" fill="white"/>
  </g>
  
  <!-- Small sun -->
  <g transform="translate(48, 48)">
    <circle r="3.2" fill="#fbbf24"/>
    <circle r="2.2" fill="#fef3c7"/>
    <line x1="-4.5" y1="0" x2="-3.5" y2="0" stroke="#fbbf24" stroke-width="0.9"/>
    <line x1="4.5" y1="0" x2="3.5" y2="0" stroke="#fbbf24" stroke-width="0.9"/>
    <line x1="0" y1="-4.5" x2="0" y2="-3.5" stroke="#fbbf24" stroke-width="0.9"/>
    <line x1="0" y1="4.5" x2="0" y2="3.5" stroke="#fbbf24" stroke-width="0.9"/>
  </g>
</svg>
