<svg width="64" height="64" viewBox="0 0 64 64" xmlns="http://www.w3.org/2000/svg">
  <!-- Outer plastic model frame -->
  <rect x="2" y="2" width="60" height="60" fill="none" stroke="#64748b" stroke-width="2.5" stroke-dasharray="4,4"/>
  <rect x="1" y="1" width="5" height="5" fill="#64748b"/>
  <rect x="58" y="1" width="5" height="5" fill="#64748b"/>
  <rect x="1" y="58" width="5" height="5" fill="#64748b"/>
  <rect x="58" y="58" width="5" height="5" fill="#64748b"/>
  
  <!-- Inner plastic model frame -->
  <rect x="9" y="9" width="46" height="46" fill="none" stroke="#2563eb" stroke-width="1.5" stroke-dasharray="3,2"/>
  <rect x="8" y="8" width="3" height="3" fill="#2563eb"/>
  <rect x="53" y="8" width="3" height="3" fill="#2563eb"/>
  <rect x="8" y="53" width="3" height="3" fill="#2563eb"/>
  <rect x="53" y="53" width="3" height="3" fill="#2563eb"/>
  
  <!-- Large clock -->
  <circle cx="32" cy="32" r="14" fill="#16a34a"/>
  <circle cx="32" cy="32" r="12" fill="white"/>
  <line x1="32" y1="32" x2="32" y2="23" stroke="#16a34a" stroke-width="2.5" stroke-linecap="round"/>
  <line x1="32" y1="32" x2="39" y2="32" stroke="#16a34a" stroke-width="2" stroke-linecap="round"/>
  <circle cx="32" cy="32" r="2" fill="#16a34a"/>
  
  <!-- Medium check mark -->
  <g transform="translate(18, 46)">
    <circle r="6" fill="#2563eb"/>
    <path d="M -2.5,-0.5 L -0.5,2 L 3,-2" stroke="white" stroke-width="1.8" fill="none" stroke-linecap="round" stroke-linejoin="round"/>
  </g>
  
  <!-- Small sun -->
  <g transform="translate(46, 18)">
    <circle r="3.2" fill="#fbbf24"/>
    <circle r="2.2" fill="#fef3c7"/>
    <line x1="-4.5" y1="0" x2="-3.5" y2="0" stroke="#fbbf24" stroke-width="0.9"/>
    <line x1="4.5" y1="0" x2="3.5" y2="0" stroke="#fbbf24" stroke-width="0.9"/>
    <line x1="0" y1="-4.5" x2="0" y2="-3.5" stroke="#fbbf24" stroke-width="0.9"/>
    <line x1="0" y1="4.5" x2="0" y2="3.5" stroke="#fbbf24" stroke-width="0.9"/>
  </g>
  
  <!-- Small ID card -->
  <g transform="translate(18, 18)">
    <rect x="-2.8" y="-3.8" width="5.6" height="7.6" rx="0.5" fill="#2563eb"/>
    <rect x="-1.8" y="-2.8" width="3.6" height="2" rx="0.3" fill="white"/>
    <line x1="-1.8" y1="0.2" x2="1.8" y2="0.2" stroke="white" stroke-width="0.5"/>
    <line x1="-1.8" y1="1.5" x2="1.8" y2="1.5" stroke="white" stroke-width="0.5"/>
  </g>
  
  <!-- Small moon -->
  <g transform="translate(46, 46)">
    <circle r="3" fill="#475569"/>
    <circle cx="1.4" cy="0" r="2.4" fill="white"/>
  </g>
</svg>
