<svg width="64" height="64" viewBox="0 0 64 64" xmlns="http://www.w3.org/2000/svg">
  <!-- Outer plastic model frame -->
  <rect x="1.5" y="1.5" width="61" height="61" rx="3" fill="none" stroke="#16a34a" stroke-width="2.2" stroke-dasharray="5,2.5"/>
  <circle cx="4" cy="4" r="2.5" fill="#16a34a"/>
  <circle cx="60" cy="4" r="2.5" fill="#16a34a"/>
  <circle cx="4" cy="60" r="2.5" fill="#16a34a"/>
  <circle cx="60" cy="60" r="2.5" fill="#16a34a"/>
  
  <!-- Inner plastic model frame -->
  <rect x="9" y="9" width="46" height="46" rx="2" fill="none" stroke="#64748b" stroke-width="1.5" stroke-dasharray="3,2"/>
  <circle cx="11" cy="11" r="1.8" fill="#64748b"/>
  <circle cx="53" cy="11" r="1.8" fill="#64748b"/>
  <circle cx="11" cy="53" r="1.8" fill="#64748b"/>
  <circle cx="53" cy="53" r="1.8" fill="#64748b"/>
  
  <!-- Large clock -->
  <circle cx="32" cy="32" r="14" fill="#64748b"/>
  <circle cx="32" cy="32" r="12.5" fill="white"/>
  <line x1="32" y1="32" x2="28" y2="24" stroke="#64748b" stroke-width="2.5" stroke-linecap="round"/>
  <line x1="32" y1="32" x2="39" y2="34" stroke="#64748b" stroke-width="2" stroke-linecap="round"/>
  <circle cx="32" cy="32" r="2" fill="#64748b"/>
  
  <!-- Medium check mark -->
  <g transform="translate(17, 47)">
    <circle r="6" fill="#16a34a"/>
    <path d="M -2.5,-0.5 L -0.5,2 L 3,-2" stroke="white" stroke-width="1.8" fill="none" stroke-linecap="round" stroke-linejoin="round"/>
  </g>
  
  <!-- Small sun -->
  <g transform="translate(17, 17)">
    <circle r="3" fill="#fbbf24"/>
    <circle r="2" fill="#fffbeb"/>
    <line x1="-4" y1="0" x2="-3.2" y2="0" stroke="#fbbf24" stroke-width="0.8"/>
    <line x1="4" y1="0" x2="3.2" y2="0" stroke="#fbbf24" stroke-width="0.8"/>
    <line x1="0" y1="-4" x2="0" y2="-3.2" stroke="#fbbf24" stroke-width="0.8"/>
    <line x1="0" y1="4" x2="0" y2="3.2" stroke="#fbbf24" stroke-width="0.8"/>
  </g>
  
  <!-- Small moon -->
  <g transform="translate(47, 17)">
    <circle r="2.8" fill="#475569"/>
    <circle cx="1.2" cy="0" r="2.2" fill="#cbd5e1"/>
  </g>
  
  <!-- Small ID card -->
  <g transform="translate(47, 47)">
    <rect x="-2.5" y="-3.5" width="5" height="7" rx="0.5" fill="#2563eb"/>
    <circle cx="0" cy="-1.5" r="1" fill="white"/>
    <line x1="-1.5" y1="0.5" x2="1.5" y2="0.5" stroke="white" stroke-width="0.4"/>
    <line x1="-1.5" y1="1.5" x2="1.5" y2="1.5" stroke="white" stroke-width="0.4"/>
  </g>
</svg>
