<svg width="64" height="64" viewBox="0 0 64 64" xmlns="http://www.w3.org/2000/svg">
  <defs>
    <radialGradient id="bg20">
      <stop offset="0%" style="stop-color:#f0fdf4;stop-opacity:1" />
      <stop offset="100%" style="stop-color:#ffffff;stop-opacity:1" />
    </radialGradient>
  </defs>
  
  <!-- Background -->
  <rect width="64" height="64" fill="url(#bg20)"/>
  
  <!-- Outer plastic model frame -->
  <rect x="2" y="2" width="60" height="60" fill="none" stroke="#16a34a" stroke-width="2.2" stroke-dasharray="5,2"/>
  <circle cx="4" cy="4" r="2.2" fill="#16a34a"/>
  <circle cx="60" cy="4" r="2.2" fill="#16a34a"/>
  <circle cx="4" cy="60" r="2.2" fill="#16a34a"/>
  <circle cx="60" cy="60" r="2.2" fill="#16a34a"/>
  
  <!-- Inner plastic model frame -->
  <rect x="10" y="10" width="44" height="44" fill="none" stroke="#64748b" stroke-width="1.2" stroke-dasharray="3,1.5"/>
  <circle cx="12" cy="12" r="1.5" fill="#64748b"/>
  <circle cx="52" cy="12" r="1.5" fill="#64748b"/>
  <circle cx="12" cy="52" r="1.5" fill="#64748b"/>
  <circle cx="52" cy="52" r="1.5" fill="#64748b"/>
  
  <!-- Large clock -->
  <circle cx="32" cy="32" r="13.5" fill="#2563eb"/>
  <circle cx="32" cy="32" r="12" fill="white"/>
  <line x1="32" y1="32" x2="32" y2="23.5" stroke="#2563eb" stroke-width="2.5" stroke-linecap="round"/>
  <line x1="32" y1="32" x2="39" y2="32" stroke="#16a34a" stroke-width="2" stroke-linecap="round"/>
  <circle cx="32" cy="32" r="2" fill="#2563eb"/>
  
  <!-- Medium check mark -->
  <g transform="translate(16, 46)">
    <circle r="6" fill="#16a34a"/>
    <path d="M -2.5,-0.5 L -0.5,2 L 3,-2" stroke="white" stroke-width="1.8" fill="none" stroke-linecap="round" stroke-linejoin="round"/>
  </g>
  
  <!-- Small sun -->
  <g transform="translate(48, 18)">
    <circle r="3.2" fill="#fbbf24"/>
    <circle r="2.2" fill="#fef3c7"/>
    <g>
      <line x1="-4.5" y1="0" x2="-3.5" y2="0" stroke="#fbbf24" stroke-width="0.9"/>
      <line x1="4.5" y1="0" x2="3.5" y2="0" stroke="#fbbf24" stroke-width="0.9"/>
      <line x1="0" y1="-4.5" x2="0" y2="-3.5" stroke="#fbbf24" stroke-width="0.9"/>
      <line x1="0" y1="4.5" x2="0" y2="3.5" stroke="#fbbf24" stroke-width="0.9"/>
    </g>
  </g>
  
  <!-- Small moon -->
  <g transform="translate(18, 18)">
    <circle r="3" fill="#64748b"/>
    <circle cx="1.3" cy="0" r="2.3" fill="white"/>
  </g>
  
  <!-- Small ID card -->
  <g transform="translate(48, 46)">
    <rect x="-2.5" y="-3.5" width="5" height="7" rx="0.5" fill="#2563eb"/>
    <circle cx="0" cy="-1.5" r="1" fill="white"/>
    <line x1="-1.5" y1="0.5" x2="1.5" y2="0.5" stroke="white" stroke-width="0.4"/>
    <line x1="-1.5" y1="1.5" x2="1.5" y2="1.5" stroke="white" stroke-width="0.4"/>
  </g>
</svg>
