<svg xmlns="http://www.w3.org/2000/svg" viewBox="0 0 32 32">
  <!-- Outer frame -->
  <rect x="1" y="1" width="30" height="30" fill="none" stroke="#64748b" stroke-width="1.5"/>
  
  <!-- Inner frame -->
  <rect x="4" y="4" width="24" height="24" fill="none" stroke="#64748b" stroke-width="1"/>
  
  <!-- Burrs/nubs (top) -->
  <rect x="10" y="0" width="3" height="2" fill="#64748b"/>
  <rect x="19" y="0" width="3" height="2" fill="#64748b"/>
  
  <!-- Burrs/nubs (bottom) -->
  <rect x="14" y="30" width="4" height="2" fill="#64748b"/>
  
  <!-- Burrs/nubs (left) -->
  <rect x="0" y="10" width="2" height="3" fill="#64748b"/>
  
  <!-- Burrs/nubs (right) -->
  <rect x="30" y="19" width="2" height="3" fill="#64748b"/>
  
  <!-- Large clock in center -->
  <circle cx="16" cy="16" r="8" fill="#2563eb"/>
  <circle cx="16" cy="16" r="6" fill="white"/>
  <line x1="16" y1="16" x2="14" y2="11" stroke="#2563eb" stroke-width="1.5" stroke-linecap="round"/>
  <line x1="16" y1="16" x2="20" y2="17" stroke="#2563eb" stroke-width="1.5" stroke-linecap="round"/>
  
  <!-- Medium check mark -->
  <path d="M 5 7 L 7 9 L 10 6" stroke="#16a34a" stroke-width="1.5" fill="none" stroke-linecap="round" stroke-linejoin="round"/>
  
  <!-- Small sun -->
  <circle cx="25" cy="25" r="1.5" fill="#fbbf24"/>
  <line x1="25" y1="23" x2="25" y2="22.5" stroke="#fbbf24" stroke-width="0.5"/>
  <line x1="25" y1="27.5" x2="25" y2="27" stroke="#fbbf24" stroke-width="0.5"/>
  <line x1="23" y1="25" x2="22.5" y2="25" stroke="#fbbf24" stroke-width="0.5"/>
  <line x1="27.5" y1="25" x2="27" y2="25" stroke="#fbbf24" stroke-width="0.5"/>
  
  <!-- Small moon -->
  <path d="M 25 7 A 1.5 1.5 0 1 0 25 10 A 1.2 1.2 0 1 1 25 7" fill="#94a3b8"/>
  
  <!-- Small badge -->
  <rect x="5.5" y="23" width="3" height="4" rx="0.5" fill="#2563eb"/>
  <circle cx="7" cy="24.5" r="0.7" fill="white"/>
</svg>
