<svg width="64" height="64" viewBox="0 0 64 64" xmlns="http://www.w3.org/2000/svg">
  <!-- Outer plastic model frame -->
  <rect x="3" y="3" width="58" height="58" fill="none" stroke="#16a34a" stroke-width="2.5" stroke-dasharray="5,3"/>
  <rect x="2" y="2" width="4" height="4" fill="#16a34a"/>
  <rect x="58" y="2" width="4" height="4" fill="#16a34a"/>
  <rect x="2" y="58" width="4" height="4" fill="#16a34a"/>
  <rect x="58" y="58" width="4" height="4" fill="#16a34a"/>
  
  <!-- Inner plastic model frame -->
  <rect x="12" y="12" width="40" height="40" fill="none" stroke="#64748b" stroke-width="1.2" stroke-dasharray="3,2"/>
  <rect x="10" y="10" width="3" height="3" fill="#64748b"/>
  <rect x="51" y="10" width="3" height="3" fill="#64748b"/>
  <rect x="10" y="51" width="3" height="3" fill="#64748b"/>
  <rect x="51" y="51" width="3" height="3" fill="#64748b"/>
  
  <!-- Large clock -->
  <circle cx="32" cy="32" r="12" fill="#64748b" opacity="0.9"/>
  <circle cx="32" cy="32" r="10.5" fill="white" opacity="0.95"/>
  <line x1="32" y1="32" x2="32" y2="25" stroke="#64748b" stroke-width="2" stroke-linecap="round"/>
  <line x1="32" y1="32" x2="37" y2="35" stroke="#64748b" stroke-width="1.5" stroke-linecap="round"/>
  <circle cx="32" cy="32" r="1.5" fill="#64748b"/>
  
  <!-- Medium check mark -->
  <g transform="translate(48, 20)">
    <circle r="5.5" fill="#16a34a" opacity="0.9"/>
    <path d="M -2,-0.5 L -0.5,1.5 L 2.5,-2" stroke="white" stroke-width="1.5" fill="none" stroke-linecap="round" stroke-linejoin="round"/>
  </g>
  
  <!-- Small ID card -->
  <g transform="translate(18, 18)">
    <rect x="-3" y="-4" width="6" height="8" rx="0.5" fill="#2563eb" opacity="0.85"/>
    <circle cx="0" cy="-1.5" r="1.5" fill="white" opacity="0.9"/>
    <line x1="-2" y1="1" x2="2" y2="1" stroke="white" stroke-width="0.5"/>
    <line x1="-2" y1="2.5" x2="2" y2="2.5" stroke="white" stroke-width="0.5"/>
  </g>
  
  <!-- Small sun -->
  <g transform="translate(46, 46)">
    <circle r="3" fill="#fbbf24" opacity="0.9"/>
    <circle r="2.2" fill="#fef3c7"/>
    <g transform="rotate(45)">
      <line x1="-4.5" y1="0" x2="-3.5" y2="0" stroke="#fbbf24" stroke-width="0.7"/>
      <line x1="4.5" y1="0" x2="3.5" y2="0" stroke="#fbbf24" stroke-width="0.7"/>
      <line x1="0" y1="-4.5" x2="0" y2="-3.5" stroke="#fbbf24" stroke-width="0.7"/>
      <line x1="0" y1="4.5" x2="0" y2="3.5" stroke="#fbbf24" stroke-width="0.7"/>
    </g>
  </g>
  
  <!-- Small moon -->
  <g transform="translate(18, 46)">
    <circle r="3" fill="#64748b" opacity="0.75"/>
    <circle cx="1.3" cy="0" r="2.3" fill="white"/>
  </g>
</svg>
