<svg width="64" height="64" viewBox="0 0 64 64" xmlns="http://www.w3.org/2000/svg">
  <!-- Outer plastic model frame -->
  <rect x="1" y="1" width="62" height="62" fill="none" stroke="#64748b" stroke-width="2.5" stroke-dasharray="6,2"/>
  <circle cx="3" cy="3" r="2.5" fill="#64748b"/>
  <circle cx="61" cy="3" r="2.5" fill="#64748b"/>
  <circle cx="3" cy="61" r="2.5" fill="#64748b"/>
  <circle cx="61" cy="61" r="2.5" fill="#64748b"/>
  
  <!-- Inner plastic model frame -->
  <rect x="9" y="9" width="46" height="46" fill="none" stroke="#16a34a" stroke-width="1.5" stroke-dasharray="4,1"/>
  <circle cx="11" cy="11" r="1.8" fill="#16a34a"/>
  <circle cx="53" cy="11" r="1.8" fill="#16a34a"/>
  <circle cx="11" cy="53" r="1.8" fill="#16a34a"/>
  <circle cx="53" cy="53" r="1.8" fill="#16a34a"/>
  
  <!-- Large clock -->
  <circle cx="32" cy="32" r="13" fill="#16a34a" opacity="0.85"/>
  <circle cx="32" cy="32" r="11.5" fill="#f0fdf4" opacity="0.95"/>
  <line x1="32" y1="32" x2="32" y2="25" stroke="#16a34a" stroke-width="2.5" stroke-linecap="round"/>
  <line x1="32" y1="32" x2="38" y2="34" stroke="#16a34a" stroke-width="2" stroke-linecap="round"/>
  <circle cx="32" cy="32" r="2" fill="#16a34a"/>
  
  <!-- Medium check mark -->
  <g transform="translate(50, 48)">
    <circle r="6" fill="#2563eb" opacity="0.9"/>
    <path d="M -2.5,-0.5 L -0.5,2 L 3,-2" stroke="white" stroke-width="1.8" fill="none" stroke-linecap="round" stroke-linejoin="round"/>
  </g>
  
  <!-- Small ID card -->
  <g transform="translate(14, 48)">
    <rect x="-3" y="-4" width="6" height="8" rx="0.5" fill="#2563eb" opacity="0.8"/>
    <rect x="-2" y="-3" width="4" height="2" rx="0.3" fill="white" opacity="0.9"/>
    <line x1="-2" y1="0" x2="2" y2="0" stroke="white" stroke-width="0.5"/>
    <line x1="-2" y1="1.5" x2="2" y2="1.5" stroke="white" stroke-width="0.5"/>
  </g>
  
  <!-- Small sun -->
  <g transform="translate(50, 14)">
    <circle r="3.5" fill="#fbbf24" opacity="0.9"/>
    <circle r="2.5" fill="#fef3c7"/>
    <g>
      <line x1="-5" y1="0" x2="-4" y2="0" stroke="#fbbf24" stroke-width="1"/>
      <line x1="5" y1="0" x2="4" y2="0" stroke="#fbbf24" stroke-width="1"/>
      <line x1="0" y1="-5" x2="0" y2="-4" stroke="#fbbf24" stroke-width="1"/>
      <line x1="0" y1="5" x2="0" y2="4" stroke="#fbbf24" stroke-width="1"/>
      <line x1="-3.5" y1="-3.5" x2="-2.8" y2="-2.8" stroke="#fbbf24" stroke-width="0.8"/>
      <line x1="3.5" y1="-3.5" x2="2.8" y2="-2.8" stroke="#fbbf24" stroke-width="0.8"/>
      <line x1="-3.5" y1="3.5" x2="-2.8" y2="2.8" stroke="#fbbf24" stroke-width="0.8"/>
      <line x1="3.5" y1="3.5" x2="2.8" y2="2.8" stroke="#fbbf24" stroke-width="0.8"/>
    </g>
  </g>
  
  <!-- Small moon -->
  <g transform="translate(14, 14)">
    <circle r="3" fill="#475569" opacity="0.85"/>
    <circle cx="1.5" cy="0" r="2.5" fill="white"/>
  </g>
</svg>
