<svg width="64" height="64" viewBox="0 0 64 64" xmlns="http://www.w3.org/2000/svg">
  <!-- Background -->
  <rect width="64" height="64" fill="white"/>
  
  <!-- Outer plastic model frame -->
  <rect x="3" y="3" width="58" height="58" fill="none" stroke="#64748b" stroke-width="2" stroke-dasharray="4,3"/>
  <rect x="2" y="2" width="4" height="4" fill="#64748b"/>
  <rect x="58" y="2" width="4" height="4" fill="#64748b"/>
  <rect x="2" y="58" width="4" height="4" fill="#64748b"/>
  <rect x="58" y="58" width="4" height="4" fill="#64748b"/>
  
  <!-- Inner plastic model frame -->
  <rect x="10" y="10" width="44" height="44" fill="none" stroke="#2563eb" stroke-width="1.3" stroke-dasharray="2,2"/>
  <rect x="9" y="9" width="2.5" height="2.5" fill="#2563eb"/>
  <rect x="52.5" y="9" width="2.5" height="2.5" fill="#2563eb"/>
  <rect x="9" y="52.5" width="2.5" height="2.5" fill="#2563eb"/>
  <rect x="52.5" y="52.5" width="2.5" height="2.5" fill="#2563eb"/>
  
  <!-- Large clock -->
  <circle cx="32" cy="32" r="13.5" fill="#16a34a"/>
  <circle cx="32" cy="32" r="12" fill="#f0fdf4"/>
  <line x1="32" y1="32" x2="32" y2="23.5" stroke="#16a34a" stroke-width="2.5" stroke-linecap="round"/>
  <line x1="32" y1="32" x2="39" y2="35" stroke="#16a34a" stroke-width="2" stroke-linecap="round"/>
  <circle cx="32" cy="32" r="2" fill="#16a34a"/>
  
  <!-- Medium check mark -->
  <g transform="translate(46, 18)">
    <circle r="6" fill="#2563eb"/>
    <path d="M -2.5,-0.5 L -0.5,2 L 3,-2" stroke="white" stroke-width="1.8" fill="none" stroke-linecap="round" stroke-linejoin="round"/>
  </g>
  
  <!-- Small moon -->
  <g transform="translate(18, 18)">
    <circle r="3" fill="#64748b"/>
    <circle cx="1.3" cy="0" r="2.3" fill="white"/>
  </g>
  
  <!-- Small sun -->
  <g transform="translate(46, 46)">
    <circle r="3.2" fill="#fbbf24"/>
    <circle r="2.2" fill="#fef3c7"/>
    <g transform="rotate(45)">
      <line x1="-4.5" y1="0" x2="-3.5" y2="0" stroke="#fbbf24" stroke-width="0.8"/>
      <line x1="4.5" y1="0" x2="3.5" y2="0" stroke="#fbbf24" stroke-width="0.8"/>
      <line x1="0" y1="-4.5" x2="0" y2="-3.5" stroke="#fbbf24" stroke-width="0.8"/>
      <line x1="0" y1="4.5" x2="0" y2="3.5" stroke="#fbbf24" stroke-width="0.8"/>
    </g>
  </g>
  
  <!-- Small ID card -->
  <g transform="translate(18, 46)">
    <rect x="-2.5" y="-3.5" width="5" height="7" rx="0.5" fill="#2563eb"/>
    <circle cx="0" cy="-1.5" r="1" fill="white"/>
    <line x1="-1.5" y1="0.5" x2="1.5" y2="0.5" stroke="white" stroke-width="0.4"/>
    <line x1="-1.5" y1="1.5" x2="1.5" y2="1.5" stroke="white" stroke-width="0.4"/>
  </g>
</svg>
