<svg width="64" height="64" viewBox="0 0 64 64" xmlns="http://www.w3.org/2000/svg">
  <defs>
    <radialGradient id="bg11">
      <stop offset="0%" style="stop-color:#dbeafe;stop-opacity:1" />
      <stop offset="100%" style="stop-color:#f8fafc;stop-opacity:1" />
    </radialGradient>
  </defs>
  
  <!-- Background -->
  <rect width="64" height="64" fill="url(#bg11)"/>
  
  <!-- Outer plastic model frame -->
  <rect x="3" y="3" width="58" height="58" fill="none" stroke="#2563eb" stroke-width="2.2" stroke-dasharray="5,2"/>
  <circle cx="5" cy="5" r="2" fill="#2563eb"/>
  <circle cx="59" cy="5" r="2" fill="#2563eb"/>
  <circle cx="5" cy="59" r="2" fill="#2563eb"/>
  <circle cx="59" cy="59" r="2" fill="#2563eb"/>
  
  <!-- Inner plastic model frame -->
  <rect x="12" y="12" width="40" height="40" fill="none" stroke="#16a34a" stroke-width="1.3" stroke-dasharray="3,1"/>
  <circle cx="14" cy="14" r="1.5" fill="#16a34a"/>
  <circle cx="50" cy="14" r="1.5" fill="#16a34a"/>
  <circle cx="14" cy="50" r="1.5" fill="#16a34a"/>
  <circle cx="50" cy="50" r="1.5" fill="#16a34a"/>
  
  <!-- Large clock -->
  <circle cx="32" cy="32" r="13" fill="#2563eb"/>
  <circle cx="32" cy="32" r="11.5" fill="white"/>
  <line x1="32" y1="32" x2="29" y2="25" stroke="#2563eb" stroke-width="2.5" stroke-linecap="round"/>
  <line x1="32" y1="32" x2="38" y2="35" stroke="#2563eb" stroke-width="2" stroke-linecap="round"/>
  <circle cx="32" cy="32" r="2" fill="#2563eb"/>
  
  <!-- Medium check mark -->
  <g transform="translate(50, 18)">
    <circle r="5.5" fill="#16a34a"/>
    <path d="M -2,-0.5 L -0.5,1.5 L 2.5,-2" stroke="white" stroke-width="1.5" fill="none" stroke-linecap="round" stroke-linejoin="round"/>
  </g>
  
  <!-- Small moon -->
  <g transform="translate(14, 18)">
    <circle r="2.8" fill="#64748b"/>
    <circle cx="1.2" cy="0" r="2.2" fill="white"/>
  </g>
  
  <!-- Small ID card -->
  <g transform="translate(14, 46)">
    <rect x="-2.5" y="-3.5" width="5" height="7" rx="0.5" fill="#2563eb"/>
    <circle cx="0" cy="-1.5" r="1" fill="white"/>
    <line x1="-1.5" y1="0.5" x2="1.5" y2="0.5" stroke="white" stroke-width="0.4"/>
    <line x1="-1.5" y1="1.5" x2="1.5" y2="1.5" stroke="white" stroke-width="0.4"/>
  </g>
  
  <!-- Small sun -->
  <g transform="translate(50, 46)">
    <circle r="3" fill="#fbbf24"/>
    <circle r="2" fill="#fef3c7"/>
    <g transform="rotate(22.5)">
      <line x1="-4.5" y1="0" x2="-3.5" y2="0" stroke="#fbbf24" stroke-width="0.8"/>
      <line x1="4.5" y1="0" x2="3.5" y2="0" stroke="#fbbf24" stroke-width="0.8"/>
      <line x1="0" y1="-4.5" x2="0" y2="-3.5" stroke="#fbbf24" stroke-width="0.8"/>
      <line x1="0" y1="4.5" x2="0" y2="3.5" stroke="#fbbf24" stroke-width="0.8"/>
    </g>
  </g>
</svg>
