<svg xmlns="http://www.w3.org/2000/svg" viewBox="0 0 32 32">
  <!-- Outer frame -->
  <rect x="1" y="1" width="30" height="30" fill="none" stroke="#64748b" stroke-width="1.5"/>
  
  <!-- Inner frame -->
  <rect x="4" y="4" width="24" height="24" fill="none" stroke="#64748b" stroke-width="1"/>
  
  <!-- Burrs/nubs (top-left) -->
  <rect x="6" y="0" width="3" height="2" fill="#64748b"/>
  
  <!-- Burrs/nubs (bottom-right) -->
  <rect x="23" y="30" width="3" height="2" fill="#64748b"/>
  
  <!-- Burrs/nubs (left-bottom) -->
  <rect x="0" y="22" width="2" height="3" fill="#64748b"/>
  
  <!-- Burrs/nubs (right-top) -->
  <rect x="30" y="7" width="2" height="3" fill="#64748b"/>
  
  <!-- Large clock in center -->
  <circle cx="16" cy="16" r="8" fill="#2563eb"/>
  <circle cx="16" cy="16" r="6" fill="white"/>
  <line x1="16" y1="16" x2="16" y2="11" stroke="#2563eb" stroke-width="1.5" stroke-linecap="round"/>
  <line x1="16" y1="16" x2="20" y2="16" stroke="#2563eb" stroke-width="1.5" stroke-linecap="round"/>
  
  <!-- Medium check mark -->
  <path d="M 6 14 L 8 16 L 11 13" stroke="#16a34a" stroke-width="1.5" fill="none" stroke-linecap="round" stroke-linejoin="round"/>
  
  <!-- Small sun -->
  <circle cx="26" cy="7" r="1.5" fill="#fbbf24"/>
  <line x1="26" y1="5" x2="26" y2="4.5" stroke="#fbbf24" stroke-width="0.5"/>
  <line x1="26" y1="9.5" x2="26" y2="9" stroke="#fbbf24" stroke-width="0.5"/>
  <line x1="24" y1="7" x2="23.5" y2="7" stroke="#fbbf24" stroke-width="0.5"/>
  <line x1="28.5" y1="7" x2="28" y2="7" stroke="#fbbf24" stroke-width="0.5"/>
  
  <!-- Small moon -->
  <path d="M 7 25 A 1.5 1.5 0 1 0 7 28 A 1.2 1.2 0 1 1 7 25" fill="#94a3b8"/>
  
  <!-- Small badge -->
  <rect x="24" y="24" width="3" height="4" rx="0.5" fill="#2563eb"/>
  <circle cx="25.5" cy="25.5" r="0.7" fill="white"/>
</svg>
