<svg xmlns="http://www.w3.org/2000/svg" viewBox="0 0 32 32">
  <!-- Outer frame -->
  <rect x="2" y="2" width="28" height="28" fill="none" stroke="#1e3a5f" stroke-width="1.5" rx="2"/>
  
  <!-- Connection points (burrs) - pattern 5 -->
  <circle cx="2" cy="2" r="2" fill="#1e3a5f"/>
  <circle cx="30" cy="2" r="2" fill="#1e3a5f"/>
  <circle cx="2" cy="16" r="2" fill="#1e3a5f"/>
  <circle cx="16" cy="16" r="2" fill="#1e3a5f"/>
  <circle cx="30" cy="16" r="2" fill="#1e3a5f"/>
  <circle cx="2" cy="30" r="2" fill="#1e3a5f"/>
  <circle cx="16" cy="30" r="2" fill="#1e3a5f"/>
  <circle cx="30" cy="30" r="2" fill="#1e3a5f"/>
  
  <!-- Large clock in center -->
  <circle cx="16" cy="16" r="9" fill="#2563eb" stroke="#1e3a5f" stroke-width="1"/>
  <circle cx="16" cy="16" r="7.5" fill="white"/>
  <!-- Clock numbers -->
  <text x="16" y="10" font-family="Arial" font-size="2" fill="#1e3a5f" text-anchor="middle">12</text>
  <text x="21" y="17" font-family="Arial" font-size="2" fill="#1e3a5f" text-anchor="middle">3</text>
  <text x="16" y="23" font-family="Arial" font-size="2" fill="#1e3a5f" text-anchor="middle">6</text>
  <text x="11" y="17" font-family="Arial" font-size="2" fill="#1e3a5f" text-anchor="middle">9</text>
  <!-- Clock hands -->
  <line x1="16" y1="16" x2="16" y2="11" stroke="#1e3a5f" stroke-width="1" stroke-linecap="round"/>
  <line x1="16" y1="16" x2="19.5" y2="16" stroke="#1e3a5f" stroke-width="1" stroke-linecap="round"/>
  
  <!-- Medium checkmark (upper right) -->
  <path d="M 24 7 L 26 9 L 28.5 6.5" stroke="#16a34a" stroke-width="1.5" fill="none" stroke-linecap="round" stroke-linejoin="round"/>
  
  <!-- Small ID badge (lower left) -->
  <rect x="4" y="24" width="4" height="5" rx="0.5" fill="#2563eb" stroke="#1e3a5f" stroke-width="0.5"/>
  <circle cx="6" cy="25.5" r="0.8" fill="white"/>
  <line x1="5" y1="27.5" x2="7" y2="27.5" stroke="white" stroke-width="0.4"/>
  <line x1="5" y1="28.2" x2="7" y2="28.2" stroke="white" stroke-width="0.4"/>
  
  <!-- Small sun (lower right) -->
  <circle cx="26" cy="26" r="1.5" fill="#fbbf24"/>
  <line x1="26" y1="23.5" x2="26" y2="24.2" stroke="#fbbf24" stroke-width="0.5"/>
  <line x1="26" y1="27.8" x2="26" y2="28.5" stroke="#fbbf24" stroke-width="0.5"/>
  <line x1="23.5" y1="26" x2="24.2" y2="26" stroke="#fbbf24" stroke-width="0.5"/>
  <line x1="27.8" y1="26" x2="28.5" y2="26" stroke="#fbbf24" stroke-width="0.5"/>
  
  <!-- Small moon (upper left) -->
  <path d="M 5 7 A 2 2 0 1 0 5 11 A 1.5 1.5 0 1 1 5 7" fill="#94a3b8"/>
</svg>
