<svg xmlns="http://www.w3.org/2000/svg" viewBox="0 0 32 32">
  <!-- Background -->
  <rect width="32" height="32" fill="#ffffff"/>
  
  <!-- Outer frame (plastic model runner frame) -->
  <rect x="1" y="1" width="30" height="30" fill="none" stroke="#1e3a8a" stroke-width="1.5" rx="2"/>
  
  <!-- Connection points (gates/burrs) on the frame -->
  <circle cx="2" cy="2" r="1.5" fill="#1e3a8a"/>
  <circle cx="30" cy="2" r="1.5" fill="#1e3a8a"/>
  <circle cx="2" cy="30" r="1.5" fill="#1e3a8a"/>
  <circle cx="30" cy="30" r="1.5" fill="#1e3a8a"/>
  <circle cx="16" cy="1" r="1.5" fill="#1e3a8a"/>
  <circle cx="1" cy="16" r="1.5" fill="#1e3a8a"/>
  <circle cx="31" cy="16" r="1.5" fill="#1e3a8a"/>
  <circle cx="16" cy="31" r="1.5" fill="#1e3a8a"/>
  
  <!-- Main clock in center -->
  <circle cx="16" cy="16" r="9" fill="#ffffff" stroke="#1e3a8a" stroke-width="1.5"/>
  
  <!-- Clock numbers -->
  <text x="16" y="9.5" font-family="Arial, sans-serif" font-size="2.5" fill="#1e3a8a" text-anchor="middle" font-weight="bold">12</text>
  <text x="22" y="17" font-family="Arial, sans-serif" font-size="2.5" fill="#1e3a8a" text-anchor="middle" font-weight="bold">3</text>
  <text x="16" y="24" font-family="Arial, sans-serif" font-size="2.5" fill="#1e3a8a" text-anchor="middle" font-weight="bold">6</text>
  <text x="10" y="17" font-family="Arial, sans-serif" font-size="2.5" fill="#1e3a8a" text-anchor="middle" font-weight="bold">9</text>
  
  <!-- Clock hands (10:10) -->
  <line x1="16" y1="16" x2="16" y2="11" stroke="#1e3a8a" stroke-width="1" stroke-linecap="round"/>
  <line x1="16" y1="16" x2="19.5" y2="13" stroke="#1e3a8a" stroke-width="0.8" stroke-linecap="round"/>
  <circle cx="16" cy="16" r="0.8" fill="#1e3a8a"/>
  
  <!-- Checkmark (upper right) -->
  <path d="M 24 7 L 26 9 L 29 5" fill="none" stroke="#2563eb" stroke-width="1.5" stroke-linecap="round" stroke-linejoin="round"/>
  
  <!-- ID card (lower left) -->
  <rect x="3" y="24" width="5" height="6" fill="#1e3a8a" rx="0.5"/>
  <circle cx="5" cy="26.5" r="1" fill="#ffffff"/>
  <rect x="3.5" y="28" width="4" height="0.5" fill="#ffffff" rx="0.2"/>
  <rect x="3.5" y="29" width="4" height="0.5" fill="#ffffff" rx="0.2"/>
  
  <!-- Sun (lower right) -->
  <circle cx="27" cy="27" r="1.8" fill="#fbbf24"/>
  <line x1="27" y1="23.5" x2="27" y2="24.5" stroke="#fbbf24" stroke-width="0.8"/>
  <line x1="27" y1="29.5" x2="27" y2="30.5" stroke="#fbbf24" stroke-width="0.8"/>
  <line x1="23.5" y1="27" x2="24.5" y2="27" stroke="#fbbf24" stroke-width="0.8"/>
  <line x1="29.5" y1="27" x2="30.5" y2="27" stroke="#fbbf24" stroke-width="0.8"/>
  <line x1="24.5" y1="24.5" x2="25" y2="25" stroke="#fbbf24" stroke-width="0.8"/>
  <line x1="29" y1="29" x2="29.5" y2="29.5" stroke="#fbbf24" stroke-width="0.8"/>
  <line x1="24.5" y1="29.5" x2="25" y2="29" stroke="#fbbf24" stroke-width="0.8"/>
  <line x1="29" y1="25" x2="29.5" y2="24.5" stroke="#fbbf24" stroke-width="0.8"/>
  
  <!-- Moon (upper left) -->
  <path d="M 4 6 A 2 2 0 1 1 4 10 A 1.5 1.5 0 1 0 4 6" fill="#94a3b8"/>
</svg>
