<svg width="64" height="64" viewBox="0 0 64 64" xmlns="http://www.w3.org/2000/svg">
  <!-- Outer plastic model frame -->
  <rect x="2" y="2" width="60" height="60" fill="#f8fafc" stroke="#2563eb" stroke-width="2" stroke-dasharray="5,2"/>
  <circle cx="4" cy="4" r="2" fill="#2563eb"/>
  <circle cx="60" cy="4" r="2" fill="#2563eb"/>
  <circle cx="4" cy="60" r="2" fill="#2563eb"/>
  <circle cx="60" cy="60" r="2" fill="#2563eb"/>
  
  <!-- Inner plastic model frame -->
  <rect x="11" y="11" width="42" height="42" fill="white" stroke="#64748b" stroke-width="1.2" stroke-dasharray="3,2"/>
  <circle cx="12" cy="12" r="1.5" fill="#64748b"/>
  <circle cx="52" cy="12" r="1.5" fill="#64748b"/>
  <circle cx="12" cy="52" r="1.5" fill="#64748b"/>
  <circle cx="52" cy="52" r="1.5" fill="#64748b"/>
  
  <!-- Large clock -->
  <circle cx="32" cy="32" r="12" fill="#2563eb"/>
  <circle cx="32" cy="32" r="10" fill="white"/>
  <line x1="32" y1="32" x2="32" y2="26" stroke="#2563eb" stroke-width="2" stroke-linecap="round"/>
  <line x1="32" y1="32" x2="36" y2="32" stroke="#16a34a" stroke-width="2" stroke-linecap="round"/>
  <circle cx="32" cy="32" r="1.5" fill="#2563eb"/>
  
  <!-- Medium check mark -->
  <g transform="translate(45, 19)">
    <circle r="5" fill="#16a34a"/>
    <path d="M -2,-0.5 L -0.5,1.5 L 2.5,-2" stroke="white" stroke-width="1.5" fill="none" stroke-linecap="round" stroke-linejoin="round"/>
  </g>
  
  <!-- Small moon -->
  <g transform="translate(19, 19)">
    <circle r="2.5" fill="#64748b"/>
    <circle cx="1" cy="0" r="2" fill="#cbd5e1"/>
  </g>
  
  <!-- Small sun -->
  <g transform="translate(19, 45)">
    <circle r="2.5" fill="#fbbf24"/>
    <circle r="1.8" fill="#fef3c7"/>
  </g>
  
  <!-- Small ID card -->
  <g transform="translate(45, 45)">
    <rect x="-2.5" y="-3" width="5" height="6" rx="0.5" fill="#2563eb"/>
    <rect x="-1.5" y="-2" width="3" height="1.5" rx="0.3" fill="white"/>
    <line x1="-1.5" y1="0.5" x2="1.5" y2="0.5" stroke="white" stroke-width="0.4"/>
  </g>
</svg>
