<svg width="64" height="64" viewBox="0 0 64 64" xmlns="http://www.w3.org/2000/svg">
  <!-- Outer plastic model frame -->
  <rect x="2" y="2" width="60" height="60" fill="none" stroke="#64748b" stroke-width="2" stroke-dasharray="4,2"/>
  <circle cx="4" cy="4" r="2" fill="#64748b"/>
  <circle cx="60" cy="4" r="2" fill="#64748b"/>
  <circle cx="4" cy="60" r="2" fill="#64748b"/>
  <circle cx="60" cy="60" r="2" fill="#64748b"/>
  
  <!-- Inner plastic model frame -->
  <rect x="8" y="8" width="48" height="48" fill="none" stroke="#64748b" stroke-width="1.5" stroke-dasharray="3,1"/>
  <circle cx="10" cy="10" r="1.5" fill="#64748b"/>
  <circle cx="54" cy="10" r="1.5" fill="#64748b"/>
  <circle cx="10" cy="54" r="1.5" fill="#64748b"/>
  <circle cx="54" cy="54" r="1.5" fill="#64748b"/>
  
  <!-- Large clock -->
  <circle cx="32" cy="32" r="14" fill="#2563eb" opacity="0.9"/>
  <circle cx="32" cy="32" r="12" fill="white" opacity="0.95"/>
  <line x1="32" y1="32" x2="32" y2="24" stroke="#2563eb" stroke-width="2" stroke-linecap="round"/>
  <line x1="32" y1="32" x2="38" y2="32" stroke="#2563eb" stroke-width="1.5" stroke-linecap="round"/>
  <circle cx="32" cy="32" r="1.5" fill="#2563eb"/>
  
  <!-- Medium check mark -->
  <g transform="translate(48, 16)">
    <circle r="6" fill="#16a34a" opacity="0.9"/>
    <path d="M -2,-1 L -0.5,1.5 L 2.5,-2" stroke="white" stroke-width="1.5" fill="none" stroke-linecap="round" stroke-linejoin="round"/>
  </g>
  
  <!-- Small ID card -->
  <g transform="translate(16, 16)">
    <rect x="-3" y="-4" width="6" height="8" rx="0.5" fill="#2563eb" opacity="0.8"/>
    <rect x="-2" y="-3" width="4" height="2" rx="0.3" fill="white" opacity="0.9"/>
    <line x1="-2" y1="0" x2="2" y2="0" stroke="white" stroke-width="0.5"/>
    <line x1="-2" y1="1.5" x2="2" y2="1.5" stroke="white" stroke-width="0.5"/>
  </g>
  
  <!-- Small sun -->
  <g transform="translate(48, 48)">
    <circle r="3" fill="#fbbf24" opacity="0.9"/>
    <circle r="2" fill="#fef3c7"/>
    <line x1="-5" y1="0" x2="-4" y2="0" stroke="#fbbf24" stroke-width="0.8"/>
    <line x1="5" y1="0" x2="4" y2="0" stroke="#fbbf24" stroke-width="0.8"/>
    <line x1="0" y1="-5" x2="0" y2="-4" stroke="#fbbf24" stroke-width="0.8"/>
    <line x1="0" y1="5" x2="0" y2="4" stroke="#fbbf24" stroke-width="0.8"/>
  </g>
  
  <!-- Small moon -->
  <g transform="translate(16, 48)">
    <circle r="3" fill="#64748b" opacity="0.8"/>
    <circle cx="1.5" cy="0" r="2.5" fill="white"/>
  </g>
</svg>
